<svg xmlns="http://www.w3.org/2000/svg" viewBox="0 0 512 512" role="img" aria-label="Dashtop icon">
  <defs>
    <linearGradient id="panel" x1="96" y1="80" x2="416" y2="432" gradientUnits="userSpaceOnUse">
      <stop offset="0" stop-color="#202833"/>
      <stop offset="1" stop-color="#12171d"/>
    </linearGradient>
    <linearGradient id="accent" x1="124" y1="116" x2="388" y2="396" gradientUnits="userSpaceOnUse">
      <stop offset="0" stop-color="#41b883"/>
      <stop offset="0.58" stop-color="#41b883"/>
      <stop offset="0.58" stop-color="#f4b942"/>
      <stop offset="1" stop-color="#f4b942"/>
    </linearGradient>
  </defs>

  <rect width="512" height="512" rx="84" fill="#101418"/>
  <path d="M0 128h512M0 256h512M0 384h512M128 0v512M256 0v512M384 0v512" stroke="#ffffff" stroke-opacity="0.035" stroke-width="4"/>

  <ellipse cx="256" cy="424" rx="142" ry="24" fill="#000000" opacity="0.28"/>
  <g>
    <rect x="96" y="88" width="320" height="336" rx="52" fill="url(#panel)" stroke="#34404c" stroke-width="10"/>
    <path d="M154 155c0-16 13-29 29-29h76c74 0 127 52 127 130s-53 130-127 130h-76c-16 0-29-13-29-29V155z" fill="url(#accent)"/>
    <path d="M218 190v132h38c39 0 65-26 65-66s-26-66-65-66h-38z" fill="#101418"/>
    <rect x="150" y="126" width="236" height="260" rx="30" fill="none" stroke="#ffffff" stroke-opacity="0.18" stroke-width="8"/>
  </g>
</svg>
